0
SECTION
2
HEADER
9
$INSUNITS
70
4
0
ENDSEC
0
SECTION
2
TABLES
0
TABLE
2
LTYPE
0
LTYPE
72
65
70
64
2
CONTINUOUS
3
______
73
0
40
0
0
ENDTAB
0
TABLE
2
LAYER
0
ENDTAB
0
ENDSEC
0
SECTION
2
ENTITIES
0
LINE
8
0
10
100.0776101
20
-102.7313095
11
131.7304619
21
-104.9446925
0
LINE
8
0
10
98.221995
20
-100.5966685
11
103.2444612
21
-28.7720567
0
LINE
8
0
10
105.3791022
20
-26.9164416
11
144.4729587
21
-29.6501504
0
LINE
8
0
10
147.2708448
20
-29.931266
11
147.2767923
21
-29.8462135
0
LINE
8
0
10
147.2767923
20
-29.8462135
11
146.0604843
21
-29.761161
0
LINE
8
0
10
133.5258461
20
-121.9134967
11
228.3606607
21
-135.2416607
0
LINE
8
0
10
133.571485
20
-107.2181668
11
131.8236562
21
-119.6546144
0
LINE
8
0
10
147.2708448
20
-29.931266
11
221.7293178
21
-40.3957221
0
LINE
8
0
10
146.0604843
20
-29.761161
11
144.4884084
21
-29.5402201
0
LINE
8
0
10
144.4884084
20
-29.5402201
11
144.4729587
21
-29.6501504
0
LINE
8
0
10
220.9263919
20
-60.4794295
11
223.4315077
21
-42.6546044
0
LINE
8
0
10
234.649432
20
-62.7383118
11
228.9173531
21
-63.543903
0
LINE
8
0
10
228.3606607
20
-63.543903
11
222.6285818
21
-62.7383118
0
LINE
8
0
10
228.9173531
20
-135.2416607
11
323.7521677
21
-121.9134967
0
LINE
8
0
10
325.5475519
20
-104.9446925
11
357.2004037
21
-102.7313095
0
LINE
8
0
10
354.0335526
20
-28.7720567
11
359.0560188
21
-100.5966685
0
LINE
8
0
10
312.8050551
20
-29.6501504
11
351.8989116
21
-26.9164416
0
LINE
8
0
10
311.2175295
20
-29.761161
11
310.0012215
21
-29.8462135
0
LINE
8
0
10
310.0012215
20
-29.8462135
11
310.007169
21
-29.931266
0
LINE
8
0
10
325.4543576
20
-119.6546144
11
323.7065288
21
-107.2181668
0
LINE
8
0
10
312.8050551
20
-29.6501504
11
312.7896054
21
-29.5402201
0
LINE
8
0
10
312.7896054
20
-29.5402201
11
311.2175295
21
-29.761161
0
LINE
8
0
10
235.548696
20
-40.3957221
11
310.007169
21
-29.931266
0
LINE
8
0
10
233.8465061
20
-42.6546044
11
236.3516219
21
-60.4794295
0
ARC
8
0
10
131.5909489
20
-106.9398206
40
2
50
352.0000003
51
85.9999987
0
ARC
8
0
10
133.8041923
20
-119.9329606
40
2
50
172.0000003
51
262.0000003
0
ARC
8
0
10
228.6390069
20
-133.2611246
40
2
50
262.0000003
51
277.9999997
0
ARC
8
0
10
323.4738215
20
-119.9329606
40
2
50
277.9999997
51
7.9999997
0
ARC
8
0
10
325.6870649
20
-106.9398206
40
2
50
94.0000013
51
187.9999997
0
ARC
8
0
10
357.0608908
20
-100.7361814
40
2
50
274.0000013
51
4.0000013
0
ARC
8
0
10
352.0384246
20
-28.9115697
40
2
50
4.0000013
51
94.0000013
0
ARC
8
0
10
235.8270422
20
-42.3762582
40
2
50
97.9999997
51
187.9999997
0
ARC
8
0
10
234.3710858
20
-60.7577757
40
2
50
277.9999997
51
7.9999997
0
ARC
8
0
10
228.6390069
20
-61.5633669
40
2
50
262.0000003
51
277.9999997
0
ARC
8
0
10
222.906928
20
-60.7577757
40
2
50
172.0000003
51
262.0000003
0
ARC
8
0
10
221.4509716
20
-42.3762582
40
2
50
352.0000003
51
82.0000003
0
ARC
8
0
10
105.2395892
20
-28.9115697
40
2
50
85.9999987
51
175.9999987
0
ARC
8
0
10
100.217123
20
-100.7361814
40
2
50
175.9999987
51
265.9999987
0
CIRCLE
8
0
10
124.5700608
20
-46.3524805
40
1.5
0
CIRCLE
8
0
10
122.1983407
20
-80.2696582
40
1.5
0
CIRCLE
8
0
10
199.9070159
20
-55.5561851
40
1.5
0
CIRCLE
8
0
10
192.8091878
20
-106.0598567
40
1.5
0
CIRCLE
8
0
10
333.705517
20
-46.282724
40
1.5
0
CIRCLE
8
0
10
336.0772371
20
-80.1999017
40
1.5
0
CIRCLE
8
0
10
258.361266
20
-55.4170121
40
1.5
0
CIRCLE
8
0
10
265.4590941
20
-105.9206836
40
1.5
0
ENDSEC
0
EOF