0
SECTION
2
HEADER
9
$INSUNITS
70
4
0
ENDSEC
0
SECTION
2
TABLES
0
TABLE
2
LTYPE
0
LTYPE
72
65
70
64
2
CONTINUOUS
3
______
73
0
40
0
0
ENDTAB
0
TABLE
2
LAYER
0
ENDTAB
0
ENDSEC
0
SECTION
2
ENTITIES
0
LINE
8
0
10
143.0435898
20
-32.1042152
11
148.1351839
21
-32.6311092
0
LINE
8
0
10
314.234424
20
-32.1042152
11
309.1428299
21
-32.6311092
0
LINE
8
0
10
102.7459114
20
-100.4117905
11
134.5792443
21
-102.6377941
0
LINE
8
0
10
100.8902962
20
-98.2771495
11
103.1225034
21
-66.3550999
0
LINE
8
0
10
103.3317729
20
-63.3624077
11
103.1225034
21
-66.3550999
0
LINE
8
0
10
103.3317729
20
-63.3624077
11
105.5639801
21
-31.4403581
0
LINE
8
0
10
107.6986211
20
-29.584743
11
142.6133629
21
-32.0262196
0
LINE
8
0
10
136.3494491
20
-119.7857593
11
228.3606607
21
-132.7170917
0
LINE
8
0
10
136.4202674
20
-104.9112683
11
134.6472592
21
-117.526877
0
LINE
8
0
10
148.5966819
20
-32.6421693
11
218.9057148
21
-42.5234595
0
LINE
8
0
10
218.4507217
20
-60.1314968
11
220.6079047
21
-44.7823418
0
LINE
8
0
10
237.1251022
20
-62.3903791
11
233.5297171
21
-62.8956775
0
LINE
8
0
10
223.7482967
20
-62.8956775
11
220.1529116
21
-62.3903791
0
LINE
8
0
10
228.9173531
20
-132.7170917
11
320.9285647
21
-119.7857593
0
LINE
8
0
10
322.6987695
20
-102.6377941
11
354.5321024
21
-100.4117905
0
LINE
8
0
10
351.7140337
20
-31.4403581
11
356.3877175
21
-98.2771495
0
LINE
8
0
10
314.6646509
20
-32.0262196
11
349.5793927
21
-29.584743
0
LINE
8
0
10
322.6307546
20
-117.526877
11
320.8577464
21
-104.9112683
0
LINE
8
0
10
238.372299
20
-42.5234595
11
308.6813319
21
-32.6421693
0
LINE
8
0
10
236.6701091
20
-44.7823418
11
238.8272921
21
-60.1314968
0
ARC
8
0
10
134.4397313
20
-104.6329221
40
2
50
352.0000003
51
85.9999987
0
ARC
8
0
10
136.6277953
20
-117.8052232
40
2
50
172.0000003
51
262.0000003
0
ARC
8
0
10
228.6390069
20
-130.7365556
40
2
50
262.0000003
51
277.9999997
0
ARC
8
0
10
320.6502185
20
-117.8052232
40
2
50
277.9999997
51
7.9999997
0
ARC
8
0
10
322.8382825
20
-104.6329221
40
2
50
94.0000013
51
187.9999997
0
ARC
8
0
10
354.3925895
20
-98.4166625
40
2
50
274.0000013
51
4.0000013
0
ARC
8
0
10
349.7189057
20
-31.579871
40
2
50
4.0000013
51
94.0000013
0
ARC
8
0
10
314.8041638
20
-34.0213476
40
2
50
94.0000013
51
106.5510719
0
ARC
8
0
10
308.9596781
20
-34.6227054
40
2
50
84.7457261
51
97.9999997
0
ARC
8
0
10
238.6506452
20
-44.5039956
40
2
50
97.9999997
51
187.9999997
0
ARC
8
0
10
236.846756
20
-60.409843
40
2
50
277.9999997
51
7.9999997
0
ARC
8
0
10
220.4312578
20
-60.409843
40
2
50
172.0000003
51
262.0000003
0
ARC
8
0
10
218.6273686
20
-44.5039956
40
2
50
352.0000003
51
82.0000003
0
ARC
8
0
10
148.3183357
20
-34.6227054
40
2
50
82.0000003
51
95.2542739
0
ARC
8
0
10
142.47385
20
-34.0213476
40
2
50
433.4489281
51
85.9999987
0
ARC
8
0
10
107.5591081
20
-31.579871
40
2
50
85.9999987
51
175.9999987
0
ARC
8
0
10
102.8854243
20
-98.4166625
40
2
50
175.9999987
51
265.9999987
0
LINE
8
0
10
223.6836168
20
-69.6019408
11
223.7482967
21
-62.8956775
0
LINE
8
0
10
233.5297171
20
-62.8956775
11
233.594397
21
-69.6019408
0
LINE
8
0
10
233.594397
20
-69.6019408
11
223.6836168
21
-69.6019408
0
ENDSEC
0
EOF