0
SECTION
2
HEADER
9
$INSUNITS
70
4
0
ENDSEC
0
SECTION
2
TABLES
0
TABLE
2
LTYPE
0
LTYPE
72
65
70
64
2
CONTINUOUS
3
______
73
0
40
0
0
ENDTAB
0
TABLE
2
LAYER
0
ENDTAB
0
ENDSEC
0
SECTION
2
ENTITIES
0
LINE
8
0
10
102.6185943
20
-98.6486144
11
120.0759651
21
-99.8693527
0
LINE
8
0
10
120.0759651
20
-99.8693527
11
121.2269469
21
-83.4095458
0
LINE
8
0
10
121.2269469
20
-83.4095458
11
103.7695761
21
-82.1888075
0
LINE
8
0
10
103.7695761
20
-82.1888075
11
102.6185943
21
-98.6486144
0
LINE
8
0
10
103.8044544
20
-81.6900255
11
121.2618252
21
-82.9107638
0
LINE
8
0
10
121.2618252
20
-82.9107638
11
122.412807
21
-66.4509569
0
LINE
8
0
10
122.412807
20
-66.4509569
11
104.9554362
21
-65.2302186
0
LINE
8
0
10
104.9554362
20
-65.2302186
11
103.8044544
21
-81.6900255
0
LINE
8
0
10
104.9903144
20
-64.7314367
11
122.4476852
21
-65.952175
0
LINE
8
0
10
122.4476852
20
-65.952175
11
123.598667
21
-49.4923681
0
LINE
8
0
10
123.598667
20
-49.4923681
11
106.1412962
21
-48.2716298
0
LINE
8
0
10
106.1412962
20
-48.2716298
11
104.9903144
21
-64.7314367
0
LINE
8
0
10
106.1761745
20
-47.7728478
11
123.6335453
21
-48.9935861
0
LINE
8
0
10
123.6335453
20
-48.9935861
11
124.7845271
21
-32.5337792
0
LINE
8
0
10
124.7845271
20
-32.5337792
11
107.3271563
21
-31.3130409
0
LINE
8
0
10
107.3271563
20
-31.3130409
11
106.1761745
21
-47.7728478
0
LINE
8
0
10
120.5747472
20
-99.9042309
11
138.032118
21
-101.1249692
0
LINE
8
0
10
138.032118
20
-101.1249692
11
139.1830998
21
-84.6651623
0
LINE
8
0
10
139.1830998
20
-84.6651623
11
121.725729
21
-83.444424
0
LINE
8
0
10
121.725729
20
-83.444424
11
120.5747472
21
-99.9042309
0
LINE
8
0
10
121.7606073
20
-82.945642
11
139.2179781
21
-84.1663803
0
LINE
8
0
10
139.2179781
20
-84.1663803
11
140.3689599
21
-67.7065734
0
LINE
8
0
10
140.3689599
20
-67.7065734
11
122.9115891
21
-66.4858351
0
LINE
8
0
10
122.9115891
20
-66.4858351
11
121.7606073
21
-82.945642
0
LINE
8
0
10
122.9464673
20
-65.9870532
11
140.4038381
21
-67.2077915
0
LINE
8
0
10
140.4038381
20
-67.2077915
11
141.5548199
21
-50.7479846
0
LINE
8
0
10
141.5548199
20
-50.7479846
11
124.0974491
21
-49.5272463
0
LINE
8
0
10
124.0974491
20
-49.5272463
11
122.9464673
21
-65.9870532
0
LINE
8
0
10
124.1323274
20
-49.0284643
11
141.5896982
21
-50.2492026
0
LINE
8
0
10
141.5896982
20
-50.2492026
11
142.74068
21
-33.7893957
0
LINE
8
0
10
142.74068
20
-33.7893957
11
125.2833092
21
-32.5686574
0
LINE
8
0
10
125.2833092
20
-32.5686574
11
124.1323274
21
-49.0284643
0
LINE
8
0
10
136.345435
20
-118.0179969
11
153.6751262
21
-120.4535262
0
LINE
8
0
10
153.6751262
20
-120.4535262
11
155.9714824
21
-104.1141031
0
LINE
8
0
10
155.9714824
20
-104.1141031
11
138.6417912
21
-101.6785738
0
LINE
8
0
10
138.6417912
20
-101.6785738
11
136.345435
21
-118.0179969
0
LINE
8
0
10
138.7113777
20
-101.1834397
11
156.0410689
21
-103.618969
0
LINE
8
0
10
156.0410689
20
-103.618969
11
158.3374251
21
-87.2795459
0
LINE
8
0
10
158.3374251
20
-87.2795459
11
141.0077339
21
-84.8440166
0
LINE
8
0
10
141.0077339
20
-84.8440166
11
138.7113777
21
-101.1834397
0
LINE
8
0
10
141.0773204
20
-84.3488826
11
158.4070116
21
-86.7844119
0
LINE
8
0
10
158.4070116
20
-86.7844119
11
160.7033678
21
-70.4449888
0
LINE
8
0
10
160.7033678
20
-70.4449888
11
143.3736766
21
-68.0094595
0
LINE
8
0
10
143.3736766
20
-68.0094595
11
141.0773204
21
-84.3488826
0
LINE
8
0
10
143.4432631
20
-67.5143254
11
160.7729543
21
-69.9498547
0
LINE
8
0
10
160.7729543
20
-69.9498547
11
163.0693105
21
-53.6104316
0
LINE
8
0
10
163.0693105
20
-53.6104316
11
145.7396193
21
-51.1749023
0
LINE
8
0
10
145.7396193
20
-51.1749023
11
143.4432631
21
-67.5143254
0
LINE
8
0
10
145.8092058
20
-50.6797682
11
163.138897
21
-53.1152975
0
LINE
8
0
10
163.138897
20
-53.1152975
11
165.4352532
21
-36.7758744
0
LINE
8
0
10
165.4352532
20
-36.7758744
11
148.105562
21
-34.3403451
0
LINE
8
0
10
148.105562
20
-34.3403451
11
145.8092058
21
-50.6797682
0
LINE
8
0
10
154.1702602
20
-120.5231127
11
171.4999514
21
-122.958642
0
LINE
8
0
10
171.4999514
20
-122.958642
11
173.7963076
21
-106.6192189
0
LINE
8
0
10
173.7963076
20
-106.6192189
11
156.4666164
21
-104.1836896
0
LINE
8
0
10
156.4666164
20
-104.1836896
11
154.1702602
21
-120.5231127
0
LINE
8
0
10
156.536203
20
-103.6885556
11
173.8658942
21
-106.1240849
0
LINE
8
0
10
173.8658942
20
-106.1240849
11
176.1622504
21
-89.7846618
0
LINE
8
0
10
176.1622504
20
-89.7846618
11
158.8325592
21
-87.3491325
0
LINE
8
0
10
158.8325592
20
-87.3491325
11
156.536203
21
-103.6885556
0
LINE
8
0
10
158.9021456
20
-86.8539984
11
176.2318368
21
-89.2895277
0
LINE
8
0
10
176.2318368
20
-89.2895277
11
178.528193
21
-72.9501046
0
LINE
8
0
10
178.528193
20
-72.9501046
11
161.1985018
21
-70.5145753
0
LINE
8
0
10
161.1985018
20
-70.5145753
11
158.9021456
21
-86.8539984
0
LINE
8
0
10
161.2680884
20
-70.0194412
11
178.5977796
21
-72.4549705
0
LINE
8
0
10
178.5977796
20
-72.4549705
11
180.8941358
21
-56.1155474
0
LINE
8
0
10
180.8941358
20
-56.1155474
11
163.5644446
21
-53.6800181
0
LINE
8
0
10
163.5644446
20
-53.6800181
11
161.2680884
21
-70.0194412
0
LINE
8
0
10
163.634031
20
-53.184884
11
180.9637222
21
-55.6204133
0
LINE
8
0
10
180.9637222
20
-55.6204133
11
183.2600784
21
-39.2809902
0
LINE
8
0
10
183.2600784
20
-39.2809902
11
165.9303872
21
-36.8454609
0
LINE
8
0
10
165.9303872
20
-36.8454609
11
163.634031
21
-53.184884
0
LINE
8
0
10
171.9950854
20
-123.0282286
11
189.3247766
21
-125.4637579
0
LINE
8
0
10
189.3247766
20
-125.4637579
11
191.6211328
21
-109.1243348
0
LINE
8
0
10
191.6211328
20
-109.1243348
11
174.2914416
21
-106.6888055
0
LINE
8
0
10
174.2914416
20
-106.6888055
11
171.9950854
21
-123.0282286
0
LINE
8
0
10
174.3610282
20
-106.1936714
11
191.6907194
21
-108.6292007
0
LINE
8
0
10
191.6907194
20
-108.6292007
11
193.9870756
21
-92.2897776
0
LINE
8
0
10
193.9870756
20
-92.2897776
11
176.6573844
21
-89.8542483
0
LINE
8
0
10
176.6573844
20
-89.8542483
11
174.3610282
21
-106.1936714
0
LINE
8
0
10
176.7269709
20
-89.3591141
11
194.0566621
21
-91.7946434
0
LINE
8
0
10
194.0566621
20
-91.7946434
11
196.3530183
21
-75.4552203
0
LINE
8
0
10
196.3530183
20
-75.4552203
11
179.0233271
21
-73.019691
0
LINE
8
0
10
179.0233271
20
-73.019691
11
176.7269709
21
-89.3591141
0
LINE
8
0
10
179.0929136
20
-72.524557
11
196.4226048
21
-74.9600863
0
LINE
8
0
10
196.4226048
20
-74.9600863
11
198.718961
21
-58.6206632
0
LINE
8
0
10
198.718961
20
-58.6206632
11
181.3892698
21
-56.1851339
0
LINE
8
0
10
181.3892698
20
-56.1851339
11
179.0929136
21
-72.524557
0
LINE
8
0
10
181.4588563
20
-55.6899998
11
198.7885475
21
-58.1255291
0
LINE
8
0
10
198.7885475
20
-58.1255291
11
201.0849037
21
-41.786106
0
LINE
8
0
10
201.0849037
20
-41.786106
11
183.7552125
21
-39.3505767
0
LINE
8
0
10
183.7552125
20
-39.3505767
11
181.4588563
21
-55.6899998
0
LINE
8
0
10
189.8199107
20
-125.5333444
11
198.4847563
21
-126.7511091
0
LINE
8
0
10
200.7811125
20
-110.4116859
11
192.1162669
21
-109.1939213
0
LINE
8
0
10
192.1162669
20
-109.1939213
11
189.8199107
21
-125.5333444
0
LINE
8
0
10
192.1858534
20
-108.6987872
11
200.850699
21
-109.9165519
0
LINE
8
0
10
203.1470552
20
-93.5771287
11
194.4822096
21
-92.3593641
0
LINE
8
0
10
194.4822096
20
-92.3593641
11
192.1858534
21
-108.6987872
0
LINE
8
0
10
194.5517961
20
-91.86423
11
203.2166418
21
-93.0819947
0
LINE
8
0
10
205.5129979
20
-76.7425716
11
196.8481523
21
-75.5248069
0
LINE
8
0
10
196.8481523
20
-75.5248069
11
194.5517961
21
-91.86423
0
LINE
8
0
10
196.9177388
20
-75.0296728
11
205.5825845
21
-76.2474375
0
LINE
8
0
10
216.4394064
20
-61.86848
11
216.5437862
21
-61.125779
0
LINE
8
0
10
216.5437862
20
-61.125779
11
199.214095
21
-58.6902497
0
LINE
8
0
10
199.214095
20
-58.6902497
11
196.9177388
21
-75.0296728
0
LINE
8
0
10
199.2836815
20
-58.1951157
11
216.6133727
21
-60.630645
0
LINE
8
0
10
216.6133727
20
-60.630645
11
218.9097289
21
-44.2912219
0
LINE
8
0
10
218.9097289
20
-44.2912219
11
201.5800377
21
-41.8556926
0
LINE
8
0
10
201.5800377
20
-41.8556926
11
199.2836815
21
-58.1951157
0
LINE
8
0
10
259.0368104
20
-128.4840782
11
258.7932575
21
-126.7511091
0
LINE
8
0
10
256.4969013
20
-110.4116859
11
256.4273148
21
-109.9165519
0
LINE
8
0
10
254.1309586
20
-93.5771287
11
254.061372
21
-93.0819947
0
LINE
8
0
10
251.7650159
20
-76.7425716
11
251.6954293
21
-76.2474375
0
LINE
8
0
10
240.8386074
20
-61.86848
11
228.6390069
21
-63.583022
0
LINE
8
0
10
228.6390069
20
-63.583022
11
216.4394064
21
-61.86848
0
LINE
8
0
10
198.4847563
20
-126.7511091
11
198.2412034
21
-128.4840782
0
LINE
8
0
10
200.850699
20
-109.9165519
11
200.7811125
21
-110.4116859
0
LINE
8
0
10
203.2166418
20
-93.0819947
11
203.1470552
21
-93.5771287
0
LINE
8
0
10
205.5825845
20
-76.2474375
11
205.5129979
21
-76.7425716
0
LINE
8
0
10
198.2412034
20
-128.4840782
11
228.6390069
21
-132.7562107
0
LINE
8
0
10
228.6390069
20
-132.7562107
11
259.0368104
21
-128.4840782
0
LINE
8
0
10
337.2020487
20
-99.8693527
11
354.6594195
21
-98.6486144
0
LINE
8
0
10
354.6594195
20
-98.6486144
11
353.5084377
21
-82.1888075
0
LINE
8
0
10
353.5084377
20
-82.1888075
11
336.0510669
21
-83.4095458
0
LINE
8
0
10
336.0510669
20
-83.4095458
11
337.2020487
21
-99.8693527
0
LINE
8
0
10
336.0161886
20
-82.9107638
11
353.4735594
21
-81.6900255
0
LINE
8
0
10
353.4735594
20
-81.6900255
11
352.3225776
21
-65.2302186
0
LINE
8
0
10
352.3225776
20
-65.2302186
11
334.8652068
21
-66.4509569
0
LINE
8
0
10
334.8652068
20
-66.4509569
11
336.0161886
21
-82.9107638
0
LINE
8
0
10
334.8303286
20
-65.952175
11
352.2876994
21
-64.7314367
0
LINE
8
0
10
352.2876994
20
-64.7314367
11
351.1367176
21
-48.2716298
0
LINE
8
0
10
351.1367176
20
-48.2716298
11
333.6793468
21
-49.4923681
0
LINE
8
0
10
333.6793468
20
-49.4923681
11
334.8303286
21
-65.952175
0
LINE
8
0
10
333.6444685
20
-48.9935861
11
351.1018393
21
-47.7728478
0
LINE
8
0
10
351.1018393
20
-47.7728478
11
349.9508575
21
-31.3130409
0
LINE
8
0
10
349.9508575
20
-31.3130409
11
332.4934867
21
-32.5337792
0
LINE
8
0
10
332.4934867
20
-32.5337792
11
333.6444685
21
-48.9935861
0
LINE
8
0
10
319.2458958
20
-101.1249692
11
336.7032666
21
-99.9042309
0
LINE
8
0
10
336.7032666
20
-99.9042309
11
335.5522848
21
-83.444424
0
LINE
8
0
10
335.5522848
20
-83.444424
11
318.094914
21
-84.6651623
0
LINE
8
0
10
318.094914
20
-84.6651623
11
319.2458958
21
-101.1249692
0
LINE
8
0
10
318.0600357
20
-84.1663803
11
335.5174065
21
-82.945642
0
LINE
8
0
10
335.5174065
20
-82.945642
11
334.3664247
21
-66.4858351
0
LINE
8
0
10
334.3664247
20
-66.4858351
11
316.9090539
21
-67.7065734
0
LINE
8
0
10
316.9090539
20
-67.7065734
11
318.0600357
21
-84.1663803
0
LINE
8
0
10
316.8741757
20
-67.2077915
11
334.3315465
21
-65.9870532
0
LINE
8
0
10
334.3315465
20
-65.9870532
11
333.1805647
21
-49.5272463
0
LINE
8
0
10
333.1805647
20
-49.5272463
11
315.7231939
21
-50.7479846
0
LINE
8
0
10
315.7231939
20
-50.7479846
11
316.8741757
21
-67.2077915
0
LINE
8
0
10
315.6883156
20
-50.2492026
11
333.1456864
21
-49.0284643
0
LINE
8
0
10
333.1456864
20
-49.0284643
11
331.9947046
21
-32.5686574
0
LINE
8
0
10
331.9947046
20
-32.5686574
11
314.5373338
21
-33.7893957
0
LINE
8
0
10
314.5373338
20
-33.7893957
11
315.6883156
21
-50.2492026
0
LINE
8
0
10
303.6028876
20
-120.4535262
11
320.9325788
21
-118.0179969
0
LINE
8
0
10
320.9325788
20
-118.0179969
11
318.6362226
21
-101.6785738
0
LINE
8
0
10
318.6362226
20
-101.6785738
11
301.3065314
21
-104.1141031
0
LINE
8
0
10
301.3065314
20
-104.1141031
11
303.6028876
21
-120.4535262
0
LINE
8
0
10
301.2369449
20
-103.618969
11
318.5666361
21
-101.1834397
0
LINE
8
0
10
318.5666361
20
-101.1834397
11
316.2702799
21
-84.8440166
0
LINE
8
0
10
316.2702799
20
-84.8440166
11
298.9405887
21
-87.2795459
0
LINE
8
0
10
298.9405887
20
-87.2795459
11
301.2369449
21
-103.618969
0
LINE
8
0
10
298.8710022
20
-86.7844119
11
316.2006934
21
-84.3488826
0
LINE
8
0
10
316.2006934
20
-84.3488826
11
313.9043372
21
-68.0094595
0
LINE
8
0
10
313.9043372
20
-68.0094595
11
296.574646
21
-70.4449888
0
LINE
8
0
10
296.574646
20
-70.4449888
11
298.8710022
21
-86.7844119
0
LINE
8
0
10
296.5050595
20
-69.9498547
11
313.8347507
21
-67.5143254
0
LINE
8
0
10
313.8347507
20
-67.5143254
11
311.5383945
21
-51.1749023
0
LINE
8
0
10
311.5383945
20
-51.1749023
11
294.2087033
21
-53.6104316
0
LINE
8
0
10
294.2087033
20
-53.6104316
11
296.5050595
21
-69.9498547
0
LINE
8
0
10
294.1391168
20
-53.1152975
11
311.468808
21
-50.6797682
0
LINE
8
0
10
311.468808
20
-50.6797682
11
309.1724518
21
-34.3403451
0
LINE
8
0
10
309.1724518
20
-34.3403451
11
291.8427606
21
-36.7758744
0
LINE
8
0
10
291.8427606
20
-36.7758744
11
294.1391168
21
-53.1152975
0
LINE
8
0
10
285.7780624
20
-122.958642
11
303.1077536
21
-120.5231127
0
LINE
8
0
10
303.1077536
20
-120.5231127
11
300.8113974
21
-104.1836896
0
LINE
8
0
10
300.8113974
20
-104.1836896
11
283.4817062
21
-106.6192189
0
LINE
8
0
10
283.4817062
20
-106.6192189
11
285.7780624
21
-122.958642
0
LINE
8
0
10
283.4121196
20
-106.1240849
11
300.7418108
21
-103.6885556
0
LINE
8
0
10
300.7418108
20
-103.6885556
11
298.4454546
21
-87.3491325
0
LINE
8
0
10
298.4454546
20
-87.3491325
11
281.1157634
21
-89.7846618
0
LINE
8
0
10
281.1157634
20
-89.7846618
11
283.4121196
21
-106.1240849
0
LINE
8
0
10
281.046177
20
-89.2895277
11
298.3758682
21
-86.8539984
0
LINE
8
0
10
298.3758682
20
-86.8539984
11
296.079512
21
-70.5145753
0
LINE
8
0
10
296.079512
20
-70.5145753
11
278.7498208
21
-72.9501046
0
LINE
8
0
10
278.7498208
20
-72.9501046
11
281.046177
21
-89.2895277
0
LINE
8
0
10
278.6802342
20
-72.4549705
11
296.0099254
21
-70.0194412
0
LINE
8
0
10
296.0099254
20
-70.0194412
11
293.7135692
21
-53.6800181
0
LINE
8
0
10
293.7135692
20
-53.6800181
11
276.383878
21
-56.1155474
0
LINE
8
0
10
276.383878
20
-56.1155474
11
278.6802342
21
-72.4549705
0
LINE
8
0
10
276.3142916
20
-55.6204133
11
293.6439828
21
-53.184884
0
LINE
8
0
10
293.6439828
20
-53.184884
11
291.3476266
21
-36.8454609
0
LINE
8
0
10
291.3476266
20
-36.8454609
11
274.0179354
21
-39.2809902
0
LINE
8
0
10
274.0179354
20
-39.2809902
11
276.3142916
21
-55.6204133
0
LINE
8
0
10
267.9532372
20
-125.4637579
11
285.2829284
21
-123.0282286
0
LINE
8
0
10
285.2829284
20
-123.0282286
11
282.9865722
21
-106.6888055
0
LINE
8
0
10
282.9865722
20
-106.6888055
11
265.656881
21
-109.1243348
0
LINE
8
0
10
265.656881
20
-109.1243348
11
267.9532372
21
-125.4637579
0
LINE
8
0
10
265.5872944
20
-108.6292007
11
282.9169856
21
-106.1936714
0
LINE
8
0
10
282.9169856
20
-106.1936714
11
280.6206294
21
-89.8542483
0
LINE
8
0
10
280.6206294
20
-89.8542483
11
263.2909382
21
-92.2897776
0
LINE
8
0
10
263.2909382
20
-92.2897776
11
265.5872944
21
-108.6292007
0
LINE
8
0
10
263.2213517
20
-91.7946434
11
280.5510429
21
-89.3591141
0
LINE
8
0
10
280.5510429
20
-89.3591141
11
278.2546867
21
-73.019691
0
LINE
8
0
10
278.2546867
20
-73.019691
11
260.9249955
21
-75.4552203
0
LINE
8
0
10
260.9249955
20
-75.4552203
11
263.2213517
21
-91.7946434
0
LINE
8
0
10
260.855409
20
-74.9600863
11
278.1851002
21
-72.524557
0
LINE
8
0
10
278.1851002
20
-72.524557
11
275.888744
21
-56.1851339
0
LINE
8
0
10
275.888744
20
-56.1851339
11
258.5590528
21
-58.6206632
0
LINE
8
0
10
258.5590528
20
-58.6206632
11
260.855409
21
-74.9600863
0
LINE
8
0
10
258.4894663
20
-58.1255291
11
275.8191575
21
-55.6899998
0
LINE
8
0
10
275.8191575
20
-55.6899998
11
273.5228013
21
-39.3505767
0
LINE
8
0
10
273.5228013
20
-39.3505767
11
256.1931101
21
-41.786106
0
LINE
8
0
10
256.1931101
20
-41.786106
11
258.4894663
21
-58.1255291
0
LINE
8
0
10
258.7932575
20
-126.7511091
11
267.4581031
21
-125.5333444
0
LINE
8
0
10
267.4581031
20
-125.5333444
11
265.1617469
21
-109.1939213
0
LINE
8
0
10
265.1617469
20
-109.1939213
11
256.4969013
21
-110.4116859
0
LINE
8
0
10
256.4273148
20
-109.9165519
11
265.0921604
21
-108.6987872
0
LINE
8
0
10
265.0921604
20
-108.6987872
11
262.7958042
21
-92.3593641
0
LINE
8
0
10
262.7958042
20
-92.3593641
11
254.1309586
21
-93.5771287
0
LINE
8
0
10
254.061372
20
-93.0819947
11
262.7262177
21
-91.86423
0
LINE
8
0
10
262.7262177
20
-91.86423
11
260.4298615
21
-75.5248069
0
LINE
8
0
10
260.4298615
20
-75.5248069
11
251.7650159
21
-76.7425716
0
LINE
8
0
10
251.6954293
20
-76.2474375
11
260.360275
21
-75.0296728
0
LINE
8
0
10
260.360275
20
-75.0296728
11
258.0639188
21
-58.6902497
0
LINE
8
0
10
258.0639188
20
-58.6902497
11
240.7342276
21
-61.125779
0
LINE
8
0
10
240.7342276
20
-61.125779
11
240.8386074
21
-61.86848
0
LINE
8
0
10
240.6646411
20
-60.630645
11
257.9943323
21
-58.1951157
0
LINE
8
0
10
257.9943323
20
-58.1951157
11
255.6979761
21
-41.8556926
0
LINE
8
0
10
255.6979761
20
-41.8556926
11
238.3682849
21
-44.2912219
0
LINE
8
0
10
238.3682849
20
-44.2912219
11
240.6646411
21
-60.630645
0
ENDSEC
0
EOF